<mxfile host="app.diagrams.net" agent="Mozilla/5.0 (Windows NT 10.0; Win64; x64) AppleWebKit/537.36 (KHTML, like Gecko) Chrome/128.0.0.0 Safari/537.36" version="24.7.16">
  <diagram id="qxoJErH9RmXuDMK1mAhe" name="Страница — 1">
    <mxGraphModel dx="3163" dy="-426" grid="1" gridSize="10" guides="1" tooltips="1" connect="1" arrows="1" fold="1" page="1" pageScale="1" pageWidth="827" pageHeight="1169" math="0" shadow="0">
      <root>
        <mxCell id="0" />
        <mxCell id="1" parent="0" />
        <mxCell id="nAwSUExzCZu2UbTlpY4v-771" value="&lt;font face=&quot;Times New Roman&quot; style=&quot;font-size: 14px;&quot;&gt;Docker-compose&lt;/font&gt;" style="verticalAlign=top;align=left;spacingTop=8;spacingLeft=2;spacingRight=12;shape=cube;size=10;direction=south;fontStyle=4;html=1;whiteSpace=wrap;" vertex="1" parent="1">
          <mxGeometry x="-1020" y="1419.45" width="1017" height="801.5" as="geometry" />
        </mxCell>
        <mxCell id="nAwSUExzCZu2UbTlpY4v-772" value="" style="shape=cylinder3;whiteSpace=wrap;html=1;boundedLbl=1;backgroundOutline=1;size=15;" vertex="1" parent="1">
          <mxGeometry x="-489.25" y="1475" width="220" height="140" as="geometry" />
        </mxCell>
        <mxCell id="nAwSUExzCZu2UbTlpY4v-773" value="" style="shape=module;align=left;spacingLeft=20;align=center;verticalAlign=top;whiteSpace=wrap;html=1;" vertex="1" parent="1">
          <mxGeometry x="-457.12" y="1554" width="155.75" height="47.5" as="geometry" />
        </mxCell>
        <mxCell id="nAwSUExzCZu2UbTlpY4v-774" value="&lt;font style=&quot;font-size: 14px;&quot; face=&quot;Times New Roman&quot;&gt;Docker Container&lt;br&gt;Database Server&lt;/font&gt;" style="text;html=1;align=center;verticalAlign=middle;whiteSpace=wrap;rounded=0;" vertex="1" parent="1">
          <mxGeometry x="-438" y="1515" width="107.5" height="32.5" as="geometry" />
        </mxCell>
        <mxCell id="nAwSUExzCZu2UbTlpY4v-775" value="" style="verticalAlign=top;align=left;spacingTop=8;spacingLeft=2;spacingRight=12;shape=cube;size=10;direction=south;fontStyle=4;html=1;whiteSpace=wrap;" vertex="1" parent="1">
          <mxGeometry x="-641.37" y="2012.5" width="225" height="155" as="geometry" />
        </mxCell>
        <mxCell id="nAwSUExzCZu2UbTlpY4v-776" value="&lt;font style=&quot;font-size: 14px;&quot; face=&quot;Times New Roman&quot;&gt;Docker Container&lt;br&gt;СoreService&lt;/font&gt;" style="text;html=1;align=center;verticalAlign=middle;whiteSpace=wrap;rounded=0;" vertex="1" parent="1">
          <mxGeometry x="-582.62" y="2030" width="114.25" height="32" as="geometry" />
        </mxCell>
        <mxCell id="nAwSUExzCZu2UbTlpY4v-777" value="" style="verticalAlign=top;align=left;spacingTop=8;spacingLeft=2;spacingRight=12;shape=cube;size=10;direction=south;fontStyle=4;html=1;whiteSpace=wrap;" vertex="1" parent="1">
          <mxGeometry x="-945" y="2012.5" width="225" height="155" as="geometry" />
        </mxCell>
        <mxCell id="nAwSUExzCZu2UbTlpY4v-778" value="&lt;font face=&quot;Times New Roman&quot; style=&quot;font-size: 14px;&quot;&gt;Docker Container&lt;br&gt;AuthService&lt;/font&gt;" style="text;html=1;align=center;verticalAlign=middle;whiteSpace=wrap;rounded=0;" vertex="1" parent="1">
          <mxGeometry x="-899" y="2031" width="124.25" height="30" as="geometry" />
        </mxCell>
        <mxCell id="nAwSUExzCZu2UbTlpY4v-779" value="" style="verticalAlign=top;align=left;spacingTop=8;spacingLeft=2;spacingRight=12;shape=cube;size=10;direction=south;fontStyle=4;html=1;whiteSpace=wrap;" vertex="1" parent="1">
          <mxGeometry x="-345.13" y="1728.45" width="225" height="155" as="geometry" />
        </mxCell>
        <mxCell id="nAwSUExzCZu2UbTlpY4v-780" value="&lt;font style=&quot;font-size: 14px;&quot; face=&quot;Times New Roman&quot;&gt;Docker Container&lt;br&gt;UsersService&lt;/font&gt;" style="text;html=1;align=center;verticalAlign=middle;whiteSpace=wrap;rounded=0;" vertex="1" parent="1">
          <mxGeometry x="-286.38" y="1745.95" width="107.5" height="30" as="geometry" />
        </mxCell>
        <mxCell id="nAwSUExzCZu2UbTlpY4v-783" value="" style="verticalAlign=top;align=left;spacingTop=8;spacingLeft=2;spacingRight=12;shape=cube;size=10;direction=south;fontStyle=4;html=1;whiteSpace=wrap;" vertex="1" parent="1">
          <mxGeometry x="-645.88" y="1731" width="225" height="155" as="geometry" />
        </mxCell>
        <mxCell id="nAwSUExzCZu2UbTlpY4v-784" value="&lt;font style=&quot;font-size: 14px;&quot; face=&quot;Times New Roman&quot;&gt;Docker Container&lt;br&gt;AdminService&lt;/font&gt;" style="text;html=1;align=center;verticalAlign=middle;whiteSpace=wrap;rounded=0;" vertex="1" parent="1">
          <mxGeometry x="-587.13" y="1748.5" width="107.5" height="30" as="geometry" />
        </mxCell>
        <mxCell id="nAwSUExzCZu2UbTlpY4v-785" value="" style="verticalAlign=top;align=left;spacingTop=8;spacingLeft=2;spacingRight=12;shape=cube;size=10;direction=south;fontStyle=4;html=1;whiteSpace=wrap;" vertex="1" parent="1">
          <mxGeometry x="20" y="1948" width="267.5" height="235" as="geometry" />
        </mxCell>
        <mxCell id="nAwSUExzCZu2UbTlpY4v-786" value="" style="verticalAlign=top;align=left;spacingTop=8;spacingLeft=2;spacingRight=12;shape=cube;size=10;direction=south;fontStyle=4;html=1;whiteSpace=wrap;" vertex="1" parent="1">
          <mxGeometry x="29.620000000000005" y="1998.5" width="235.5" height="150" as="geometry" />
        </mxCell>
        <mxCell id="nAwSUExzCZu2UbTlpY4v-787" value="&lt;font style=&quot;font-size: 14px;&quot; face=&quot;Times New Roman&quot;&gt;Browser&lt;/font&gt;&lt;div style=&quot;font-size: 14px;&quot;&gt;&lt;font style=&quot;font-size: 14px;&quot; face=&quot;Times New Roman&quot;&gt;&lt;font style=&quot;font-size: 14px;&quot;&gt;Google Chrome&lt;/font&gt;&lt;span style=&quot;font-size: 13px;&quot;&gt;&amp;nbsp;&lt;/span&gt;&lt;span style=&quot;font-size: 14px; background-color: initial;&quot;&gt;128.0.6613.139&lt;/span&gt;&lt;/font&gt;&lt;br&gt;&lt;/div&gt;" style="text;html=1;align=center;verticalAlign=middle;whiteSpace=wrap;rounded=0;" vertex="1" parent="1">
          <mxGeometry x="43" y="2010" width="203.5" height="46.5" as="geometry" />
        </mxCell>
        <mxCell id="nAwSUExzCZu2UbTlpY4v-788" value="&lt;div style=&quot;&quot;&gt;&lt;br&gt;&lt;/div&gt;" style="shape=module;align=left;spacingLeft=20;align=center;verticalAlign=top;whiteSpace=wrap;html=1;" vertex="1" parent="1">
          <mxGeometry x="66.37" y="2063.5" width="178.75" height="75" as="geometry" />
        </mxCell>
        <mxCell id="nAwSUExzCZu2UbTlpY4v-789" value="&lt;font style=&quot;font-size: 14px;&quot; face=&quot;Times New Roman&quot;&gt;&amp;lt;&amp;lt;device&amp;gt;&amp;gt;&lt;br&gt;Client&lt;/font&gt;" style="text;html=1;align=center;verticalAlign=middle;whiteSpace=wrap;rounded=0;" vertex="1" parent="1">
          <mxGeometry x="102.62" y="1966.5" width="97.5" height="30" as="geometry" />
        </mxCell>
        <mxCell id="nAwSUExzCZu2UbTlpY4v-790" value="" style="endArrow=block;html=1;rounded=0;exitX=0.5;exitY=1;exitDx=0;exitDy=0;exitPerimeter=0;entryX=0;entryY=0;entryDx=0;entryDy=107.50000000000001;entryPerimeter=0;edgeStyle=orthogonalEdgeStyle;endFill=1;startArrow=block;startFill=1;" edge="1" parent="1" source="nAwSUExzCZu2UbTlpY4v-772">
          <mxGeometry width="50" height="50" relative="1" as="geometry">
            <mxPoint x="-369" y="1625" as="sourcePoint" />
            <mxPoint x="-210.5" y="1735" as="targetPoint" />
            <Array as="points">
              <mxPoint x="-379" y="1695" />
              <mxPoint x="-210" y="1695" />
              <mxPoint x="-210" y="1735" />
            </Array>
          </mxGeometry>
        </mxCell>
        <mxCell id="nAwSUExzCZu2UbTlpY4v-791" value="&lt;font style=&quot;font-size: 14px;&quot; face=&quot;Times New Roman&quot;&gt;TCP&lt;/font&gt;" style="edgeLabel;html=1;align=center;verticalAlign=middle;resizable=0;points=[];" vertex="1" connectable="0" parent="nAwSUExzCZu2UbTlpY4v-790">
          <mxGeometry x="0.0757" y="1" relative="1" as="geometry">
            <mxPoint x="-23" y="-16" as="offset" />
          </mxGeometry>
        </mxCell>
        <mxCell id="nAwSUExzCZu2UbTlpY4v-794" value="" style="endArrow=block;html=1;rounded=0;exitX=0.5;exitY=1;exitDx=0;exitDy=0;exitPerimeter=0;entryX=0;entryY=0;entryDx=0;entryDy=107.5;entryPerimeter=0;edgeStyle=orthogonalEdgeStyle;endFill=1;startArrow=block;startFill=1;" edge="1" parent="1" source="nAwSUExzCZu2UbTlpY4v-772" target="nAwSUExzCZu2UbTlpY4v-783">
          <mxGeometry width="50" height="50" relative="1" as="geometry">
            <mxPoint x="-369" y="1625" as="sourcePoint" />
            <mxPoint x="-835" y="1745" as="targetPoint" />
            <Array as="points">
              <mxPoint x="-379" y="1670" />
              <mxPoint x="-528" y="1670" />
            </Array>
          </mxGeometry>
        </mxCell>
        <mxCell id="nAwSUExzCZu2UbTlpY4v-795" value="&lt;font style=&quot;font-size: 14px;&quot; face=&quot;Times New Roman&quot;&gt;TCP&lt;/font&gt;" style="edgeLabel;html=1;align=center;verticalAlign=middle;resizable=0;points=[];" vertex="1" connectable="0" parent="nAwSUExzCZu2UbTlpY4v-794">
          <mxGeometry x="0.0757" y="1" relative="1" as="geometry">
            <mxPoint x="-6" y="-9" as="offset" />
          </mxGeometry>
        </mxCell>
        <mxCell id="nAwSUExzCZu2UbTlpY4v-796" value="" style="endArrow=block;html=1;rounded=0;edgeStyle=orthogonalEdgeStyle;endFill=1;startArrow=block;startFill=1;exitX=0.561;exitY=0;exitDx=0;exitDy=0;exitPerimeter=0;entryX=0.56;entryY=1.002;entryDx=0;entryDy=0;entryPerimeter=0;" edge="1" parent="1" source="nAwSUExzCZu2UbTlpY4v-777" target="nAwSUExzCZu2UbTlpY4v-775">
          <mxGeometry width="50" height="50" relative="1" as="geometry">
            <mxPoint x="-768" y="2106.02" as="sourcePoint" />
            <mxPoint x="-663" y="2106.02" as="targetPoint" />
            <Array as="points" />
          </mxGeometry>
        </mxCell>
        <mxCell id="nAwSUExzCZu2UbTlpY4v-797" value="&lt;font style=&quot;font-size: 14px;&quot; face=&quot;Times New Roman&quot;&gt;HTTP 1.1&lt;/font&gt;" style="edgeLabel;html=1;align=center;verticalAlign=middle;resizable=0;points=[];" vertex="1" connectable="0" parent="nAwSUExzCZu2UbTlpY4v-796">
          <mxGeometry x="0.0757" y="1" relative="1" as="geometry">
            <mxPoint x="-6" y="-9" as="offset" />
          </mxGeometry>
        </mxCell>
        <mxCell id="nAwSUExzCZu2UbTlpY4v-798" value="" style="endArrow=block;html=1;rounded=0;edgeStyle=orthogonalEdgeStyle;endFill=1;startArrow=block;startFill=1;exitX=-0.002;exitY=0.275;exitDx=0;exitDy=0;exitPerimeter=0;entryX=0;entryY=0;entryDx=155;entryDy=117.5;entryPerimeter=0;" edge="1" parent="1" source="nAwSUExzCZu2UbTlpY4v-775">
          <mxGeometry width="50" height="50" relative="1" as="geometry">
            <mxPoint x="-463" y="2022" as="sourcePoint" />
            <mxPoint x="-220.5" y="1889.9999999999998" as="targetPoint" />
            <Array as="points">
              <mxPoint x="-478" y="1955" />
              <mxPoint x="-221" y="1955" />
            </Array>
          </mxGeometry>
        </mxCell>
        <mxCell id="nAwSUExzCZu2UbTlpY4v-799" value="&lt;font style=&quot;font-size: 14px;&quot; face=&quot;Times New Roman&quot;&gt;HTTP 1.1&lt;/font&gt;" style="edgeLabel;html=1;align=center;verticalAlign=middle;resizable=0;points=[];" vertex="1" connectable="0" parent="nAwSUExzCZu2UbTlpY4v-798">
          <mxGeometry x="0.0757" y="1" relative="1" as="geometry">
            <mxPoint x="-23" y="-16" as="offset" />
          </mxGeometry>
        </mxCell>
        <mxCell id="nAwSUExzCZu2UbTlpY4v-803" value="&lt;font style=&quot;font-size: 14px;&quot; face=&quot;Times New Roman&quot;&gt;ОС. Linux. Ubuntu 20.04 LTS&lt;/font&gt;" style="text;strokeColor=none;fillColor=none;align=left;verticalAlign=middle;spacingLeft=4;spacingRight=4;overflow=hidden;points=[[0,0.5],[1,0.5]];portConstraint=eastwest;rotatable=0;whiteSpace=wrap;html=1;" vertex="1" parent="1">
          <mxGeometry x="-334.13" y="1856.5800000000002" width="196" height="30" as="geometry" />
        </mxCell>
        <mxCell id="nAwSUExzCZu2UbTlpY4v-804" value="" style="shape=module;align=left;spacingLeft=20;align=center;verticalAlign=top;whiteSpace=wrap;html=1;" vertex="1" parent="1">
          <mxGeometry x="-304.13" y="1788.45" width="166" height="70" as="geometry" />
        </mxCell>
        <mxCell id="nAwSUExzCZu2UbTlpY4v-805" value="&lt;font face=&quot;Times New Roman&quot;&gt;&lt;span style=&quot;font-size: 14px;&quot;&gt;NodeJS 20.17.0&lt;br&gt;Express.js 4.21.0&lt;br&gt;&lt;/span&gt;&lt;/font&gt;Sequelize 6.37.3" style="text;html=1;align=left;verticalAlign=middle;whiteSpace=wrap;rounded=0;" vertex="1" parent="1">
          <mxGeometry x="-282.13" y="1783.21" width="159" height="60.87" as="geometry" />
        </mxCell>
        <mxCell id="nAwSUExzCZu2UbTlpY4v-806" value="" style="shape=module;align=left;spacingLeft=20;align=center;verticalAlign=top;whiteSpace=wrap;html=1;" vertex="1" parent="1">
          <mxGeometry x="-606.87" y="2067.5" width="160" height="70" as="geometry" />
        </mxCell>
        <mxCell id="nAwSUExzCZu2UbTlpY4v-807" value="&lt;font face=&quot;Times New Roman&quot;&gt;&lt;span style=&quot;font-size: 14px;&quot;&gt;NodeJS 20.17.0&lt;br&gt;Express.js 4.21.0&lt;br&gt;&lt;/span&gt;&lt;/font&gt;Sequelize 6.37.3&lt;font face=&quot;Times New Roman&quot;&gt;&lt;span style=&quot;font-size: 14px;&quot;&gt;&lt;br&gt;&lt;/span&gt;&lt;/font&gt;" style="text;html=1;align=left;verticalAlign=middle;whiteSpace=wrap;rounded=0;" vertex="1" parent="1">
          <mxGeometry x="-584.12" y="2073.75" width="140" height="57.5" as="geometry" />
        </mxCell>
        <mxCell id="nAwSUExzCZu2UbTlpY4v-808" value="&lt;font face=&quot;Times New Roman&quot; style=&quot;font-size: 14px;&quot;&gt;Docker 25.0.2&lt;/font&gt;" style="text;html=1;align=center;verticalAlign=middle;whiteSpace=wrap;rounded=0;" vertex="1" parent="1">
          <mxGeometry x="-138" y="2182.5" width="150" height="30" as="geometry" />
        </mxCell>
        <mxCell id="nAwSUExzCZu2UbTlpY4v-809" value="&lt;font style=&quot;font-size: 14px;&quot; face=&quot;Times New Roman&quot;&gt;ОС. Windows 10&lt;/font&gt;" style="text;strokeColor=none;fillColor=none;align=left;verticalAlign=middle;spacingLeft=4;spacingRight=4;overflow=hidden;points=[[0,0.5],[1,0.5]];portConstraint=eastwest;rotatable=0;whiteSpace=wrap;html=1;" vertex="1" parent="1">
          <mxGeometry x="155.12" y="2145.5" width="114" height="30" as="geometry" />
        </mxCell>
        <mxCell id="nAwSUExzCZu2UbTlpY4v-810" value="&lt;font face=&quot;Times New Roman&quot; style=&quot;font-size: 14px;&quot;&gt;ReactJS 18.0.2&lt;/font&gt;" style="text;html=1;align=left;verticalAlign=middle;whiteSpace=wrap;rounded=0;" vertex="1" parent="1">
          <mxGeometry x="95.12" y="2063.5" width="150" height="75" as="geometry" />
        </mxCell>
        <mxCell id="nAwSUExzCZu2UbTlpY4v-813" value="" style="shape=module;align=left;spacingLeft=20;align=center;verticalAlign=top;whiteSpace=wrap;html=1;" vertex="1" parent="1">
          <mxGeometry x="-617.88" y="1782.87" width="170" height="70" as="geometry" />
        </mxCell>
        <mxCell id="nAwSUExzCZu2UbTlpY4v-814" value="&lt;font face=&quot;Times New Roman&quot;&gt;&lt;span style=&quot;font-size: 14px;&quot;&gt;NodeJS 20.17.0&lt;br&gt;Express.js 4.21.0&lt;br&gt;&lt;/span&gt;&lt;/font&gt;Sequelize 6.37.3" style="text;html=1;align=left;verticalAlign=middle;whiteSpace=wrap;rounded=0;" vertex="1" parent="1">
          <mxGeometry x="-593.88" y="1782.87" width="159" height="60.87" as="geometry" />
        </mxCell>
        <mxCell id="nAwSUExzCZu2UbTlpY4v-815" value="&lt;font style=&quot;font-size: 14px;&quot; face=&quot;Times New Roman&quot;&gt;ОС. Linux. Ubuntu 20.04 LTS&lt;/font&gt;" style="text;strokeColor=none;fillColor=none;align=left;verticalAlign=middle;spacingLeft=4;spacingRight=4;overflow=hidden;points=[[0,0.5],[1,0.5]];portConstraint=eastwest;rotatable=0;whiteSpace=wrap;html=1;" vertex="1" parent="1">
          <mxGeometry x="-622.88" y="1856" width="196" height="30" as="geometry" />
        </mxCell>
        <mxCell id="nAwSUExzCZu2UbTlpY4v-816" value="&lt;span style=&quot;font-family: &amp;quot;Times New Roman&amp;quot;; font-size: 14px;&quot;&gt;MSSQL&amp;nbsp;&lt;/span&gt;&lt;font face=&quot;Times New Roman&quot;&gt;&lt;span style=&quot;font-size: 14px;&quot;&gt;16.0.1000.6&lt;/span&gt;&lt;/font&gt;" style="text;html=1;align=center;verticalAlign=middle;whiteSpace=wrap;rounded=0;" vertex="1" parent="1">
          <mxGeometry x="-416.37" y="1562.75" width="84" height="30" as="geometry" />
        </mxCell>
        <mxCell id="nAwSUExzCZu2UbTlpY4v-817" value="" style="endArrow=classic;startArrow=classic;html=1;rounded=0;entryX=0;entryY=0;entryDx=72.5;entryDy=0;entryPerimeter=0;exitX=0.566;exitY=1.006;exitDx=0;exitDy=0;exitPerimeter=0;" edge="1" parent="1" source="nAwSUExzCZu2UbTlpY4v-785" target="nAwSUExzCZu2UbTlpY4v-775">
          <mxGeometry width="50" height="50" relative="1" as="geometry">
            <mxPoint x="-597" y="2377" as="sourcePoint" />
            <mxPoint x="-547.9300000000001" y="2170.7599999999998" as="targetPoint" />
          </mxGeometry>
        </mxCell>
        <mxCell id="nAwSUExzCZu2UbTlpY4v-819" value="&lt;font style=&quot;font-size: 14px;&quot; face=&quot;Times New Roman&quot;&gt;ОС. Linux. Ubuntu 20.04 LTS&lt;/font&gt;" style="text;strokeColor=none;fillColor=none;align=left;verticalAlign=middle;spacingLeft=4;spacingRight=4;overflow=hidden;points=[[0,0.5],[1,0.5]];portConstraint=eastwest;rotatable=0;whiteSpace=wrap;html=1;" vertex="1" parent="1">
          <mxGeometry x="-626.87" y="2138.75" width="196" height="30" as="geometry" />
        </mxCell>
        <mxCell id="nAwSUExzCZu2UbTlpY4v-820" value="" style="shape=module;align=left;spacingLeft=20;align=center;verticalAlign=top;whiteSpace=wrap;html=1;" vertex="1" parent="1">
          <mxGeometry x="-911" y="2065" width="160" height="70" as="geometry" />
        </mxCell>
        <mxCell id="nAwSUExzCZu2UbTlpY4v-821" value="&lt;font face=&quot;Times New Roman&quot;&gt;&lt;span style=&quot;font-size: 14px;&quot;&gt;NodeJS 20.17.0&lt;br&gt;Express.js 4.21.0&lt;br&gt;&lt;/span&gt;&lt;/font&gt;Sequelize 6.37.3" style="text;html=1;align=left;verticalAlign=middle;whiteSpace=wrap;rounded=0;" vertex="1" parent="1">
          <mxGeometry x="-888.25" y="2071.25" width="140" height="57.5" as="geometry" />
        </mxCell>
        <mxCell id="nAwSUExzCZu2UbTlpY4v-822" value="&lt;font style=&quot;font-size: 14px;&quot; face=&quot;Times New Roman&quot;&gt;ОС. Linux. Ubuntu 20.04 LTS&lt;/font&gt;" style="text;strokeColor=none;fillColor=none;align=left;verticalAlign=middle;spacingLeft=4;spacingRight=4;overflow=hidden;points=[[0,0.5],[1,0.5]];portConstraint=eastwest;rotatable=0;whiteSpace=wrap;html=1;" vertex="1" parent="1">
          <mxGeometry x="-920" y="2137.5" width="196" height="30" as="geometry" />
        </mxCell>
        <mxCell id="nAwSUExzCZu2UbTlpY4v-823" value="" style="endArrow=classic;startArrow=classic;html=1;rounded=0;entryX=0.428;entryY=1.019;entryDx=0;entryDy=0;entryPerimeter=0;" edge="1" parent="1" target="nAwSUExzCZu2UbTlpY4v-815">
          <mxGeometry width="50" height="50" relative="1" as="geometry">
            <mxPoint x="-538" y="2011" as="sourcePoint" />
            <mxPoint x="-519" y="1887" as="targetPoint" />
          </mxGeometry>
        </mxCell>
        <mxCell id="nAwSUExzCZu2UbTlpY4v-824" value="&lt;font style=&quot;font-size: 14px;&quot; face=&quot;Times New Roman&quot;&gt;HTTP 1.1&lt;/font&gt;" style="text;html=1;align=center;verticalAlign=middle;whiteSpace=wrap;rounded=0;rotation=90;" vertex="1" parent="1">
          <mxGeometry x="-558.13" y="1933" width="60" height="30" as="geometry" />
        </mxCell>
        <mxCell id="nAwSUExzCZu2UbTlpY4v-825" value="" style="verticalAlign=top;align=left;spacingTop=8;spacingLeft=2;spacingRight=12;shape=cube;size=10;direction=south;fontStyle=4;html=1;whiteSpace=wrap;" vertex="1" parent="1">
          <mxGeometry x="-942" y="1735" width="225" height="155" as="geometry" />
        </mxCell>
        <mxCell id="nAwSUExzCZu2UbTlpY4v-826" value="&lt;font style=&quot;font-size: 14px;&quot; face=&quot;Times New Roman&quot;&gt;Docker Container&lt;br&gt;&lt;/font&gt;&lt;font style=&quot;font-size: 14px;&quot; face=&quot;Times New Roman&quot;&gt;ShelterManagersService&lt;/font&gt;" style="text;html=1;align=center;verticalAlign=middle;whiteSpace=wrap;rounded=0;" vertex="1" parent="1">
          <mxGeometry x="-901.12" y="1754" width="143.25" height="30" as="geometry" />
        </mxCell>
        <mxCell id="nAwSUExzCZu2UbTlpY4v-827" value="&lt;font style=&quot;font-size: 14px;&quot; face=&quot;Times New Roman&quot;&gt;ОС. Linux. Ubuntu 20.04 LTS&lt;/font&gt;" style="text;strokeColor=none;fillColor=none;align=left;verticalAlign=middle;spacingLeft=4;spacingRight=4;overflow=hidden;points=[[0,0.5],[1,0.5]];portConstraint=eastwest;rotatable=0;whiteSpace=wrap;html=1;" vertex="1" parent="1">
          <mxGeometry x="-931" y="1863.13" width="196" height="30" as="geometry" />
        </mxCell>
        <mxCell id="nAwSUExzCZu2UbTlpY4v-828" value="" style="shape=module;align=left;spacingLeft=20;align=center;verticalAlign=top;whiteSpace=wrap;html=1;" vertex="1" parent="1">
          <mxGeometry x="-901" y="1795" width="166" height="70" as="geometry" />
        </mxCell>
        <mxCell id="nAwSUExzCZu2UbTlpY4v-829" value="&lt;font face=&quot;Times New Roman&quot;&gt;&lt;span style=&quot;font-size: 14px;&quot;&gt;NodeJS 20.17.0&lt;br&gt;Express.js 4.21.0&lt;br&gt;&lt;/span&gt;&lt;/font&gt;Sequelize 6.37.3" style="text;html=1;align=left;verticalAlign=middle;whiteSpace=wrap;rounded=0;" vertex="1" parent="1">
          <mxGeometry x="-879" y="1789.76" width="159" height="60.87" as="geometry" />
        </mxCell>
        <mxCell id="nAwSUExzCZu2UbTlpY4v-831" value="" style="endArrow=classic;startArrow=classic;html=1;rounded=0;entryX=0.481;entryY=1.046;entryDx=0;entryDy=0;entryPerimeter=0;edgeStyle=orthogonalEdgeStyle;" edge="1" parent="1" target="nAwSUExzCZu2UbTlpY4v-827">
          <mxGeometry width="50" height="50" relative="1" as="geometry">
            <mxPoint x="-590" y="2010" as="sourcePoint" />
            <mxPoint x="-529" y="1897" as="targetPoint" />
            <Array as="points">
              <mxPoint x="-590" y="1960" />
              <mxPoint x="-837" y="1960" />
            </Array>
          </mxGeometry>
        </mxCell>
        <mxCell id="nAwSUExzCZu2UbTlpY4v-832" value="&lt;font style=&quot;font-size: 14px;&quot; face=&quot;Times New Roman&quot;&gt;HTTP 1.1&lt;/font&gt;" style="edgeLabel;html=1;align=center;verticalAlign=middle;resizable=0;points=[];" vertex="1" connectable="0" parent="1">
          <mxGeometry x="-717.0033630830875" y="1948" as="geometry" />
        </mxCell>
        <mxCell id="nAwSUExzCZu2UbTlpY4v-834" value="&lt;font style=&quot;font-size: 14px;&quot; face=&quot;Times New Roman&quot;&gt;HTTP 1.1&lt;/font&gt;" style="edgeLabel;html=1;align=center;verticalAlign=middle;resizable=0;points=[];" vertex="1" connectable="0" parent="1">
          <mxGeometry x="-328.0014313593067" y="1981.5" as="geometry">
            <mxPoint x="106" y="86" as="offset" />
          </mxGeometry>
        </mxCell>
        <mxCell id="nAwSUExzCZu2UbTlpY4v-835" value="" style="endArrow=block;html=1;rounded=0;exitX=0.384;exitY=1.003;exitDx=0;exitDy=0;exitPerimeter=0;entryX=0;entryY=0;entryDx=0;entryDy=107.5;entryPerimeter=0;edgeStyle=orthogonalEdgeStyle;endFill=1;startArrow=block;startFill=1;" edge="1" parent="1" source="nAwSUExzCZu2UbTlpY4v-772">
          <mxGeometry width="50" height="50" relative="1" as="geometry">
            <mxPoint x="-645.88" y="1618.96" as="sourcePoint" />
            <mxPoint x="-828.13" y="1734.96" as="targetPoint" />
            <Array as="points">
              <mxPoint x="-405" y="1620" />
              <mxPoint x="-405" y="1620" />
              <mxPoint x="-405" y="1640" />
              <mxPoint x="-828" y="1640" />
            </Array>
          </mxGeometry>
        </mxCell>
        <mxCell id="nAwSUExzCZu2UbTlpY4v-836" value="&lt;font style=&quot;font-size: 14px;&quot; face=&quot;Times New Roman&quot;&gt;TCP&lt;/font&gt;" style="edgeLabel;html=1;align=center;verticalAlign=middle;resizable=0;points=[];" vertex="1" connectable="0" parent="nAwSUExzCZu2UbTlpY4v-835">
          <mxGeometry x="0.0757" y="1" relative="1" as="geometry">
            <mxPoint x="-6" y="-9" as="offset" />
          </mxGeometry>
        </mxCell>
      </root>
    </mxGraphModel>
  </diagram>
</mxfile>
